mtllib room.mtl
usemtl checkermtl
g walls_roof
v -8 8 -8
v 8 8 -8
v -8 8 8
v 8 8 8
v -8 0 8
v 8 0 8
v -8 8 8
v 8 8 8
v -8 0 -8
v 8 0 -8
v -8 8 -8
v 8 8 -8
v -8 0 -8
v -8 0 8
v -8 8 -8
v -8 8 8
v 8 0 -8
v 8 0 8
v 8 8 -8
v 8 8 8
vt 0 0
vt 1 0
vt 0 1
vt 1 1
vt 1 0
vt 0 0
vt 1 0.5
vt 0 0.5
vt 0 0
vt 1 0
vt 0 0.5
vt 1 0.5
vt 1 0
vt 0 0
vt 1 0.5
vt 0 0.5
vt 0 0
vt 1 0
vt 0 0.5
vt 1 0.5
vn 0 -1 0
vn 0 -1 0
vn 0 -1 0
vn 0 -1 0
vn 0 0 -1
vn 0 0 -1
vn 0 0 -1
vn 0 0 -1
vn 0 0 1
vn 0 0 1
vn 0 0 1
vn 0 0 1
vn 1 0 0
vn 1 0 0
vn 1 0 0
vn 1 0 0
vn -1 0 0
vn -1 0 0
vn -1 0 0
vn -1 0 0
f 1/1/1 2/2/2 3/3/3  
f 2/2/2 4/4/4 3/3/3 
f 5/5/5 7/7/7 6/6/6 
f 6/6/6 7/7/7 8/8/8 
f 9/9/9 10/10/10 11/11/11 
f 10/10/10 12/12/12 11/11/11 
f 13/13/13 15/15/15 14/14/14 
f 14/14/14 15/15/15 16/16/16 
f 17/17/17 18/18/18 19/19/19 
f 18/18/18 20/20/20 19/19/19 
